<svg width="23" height="23" viewBox="0 0 23 23" fill="none" xmlns="http://www.w3.org/2000/svg">
<path d="M6.38889 0C2.86094 0 0 2.86094 0 6.38889V16.6111C0 20.1391 2.86094 23 6.38889 23H16.6111C20.1391 23 23 20.1391 23 16.6111V6.38889C23 2.86094 20.1391 0 16.6111 0H6.38889ZM19.1667 2.55556C19.872 2.55556 20.4444 3.128 20.4444 3.83333C20.4444 4.53867 19.872 5.11111 19.1667 5.11111C18.4613 5.11111 17.8889 4.53867 17.8889 3.83333C17.8889 3.128 18.4613 2.55556 19.1667 2.55556ZM11.5 5.11111C15.0279 5.11111 17.8889 7.97206 17.8889 11.5C17.8889 15.0279 15.0279 17.8889 11.5 17.8889C7.97206 17.8889 5.11111 15.0279 5.11111 11.5C5.11111 7.97206 7.97206 5.11111 11.5 5.11111ZM11.5 7.66667C10.4833 7.66667 9.50831 8.07053 8.78942 8.78942C8.07053 9.50831 7.66667 10.4833 7.66667 11.5C7.66667 12.5167 8.07053 13.4917 8.78942 14.2106C9.50831 14.9295 10.4833 15.3333 11.5 15.3333C12.5167 15.3333 13.4917 14.9295 14.2106 14.2106C14.9295 13.4917 15.3333 12.5167 15.3333 11.5C15.3333 10.4833 14.9295 9.50831 14.2106 8.78942C13.4917 8.07053 12.5167 7.66667 11.5 7.66667Z" fill="white"/>
</svg>
