<svg width="23" height="23" viewBox="0 0 23 23" fill="none" xmlns="http://www.w3.org/2000/svg">
<path d="M20.4444 0H2.55556C1.14361 0 0 1.14361 0 2.55556V20.4444C0 21.8564 1.14361 23 2.55556 23H12.2935V14.1054H9.29967V10.6234H12.2935V8.0615C12.2935 5.09194 14.1092 3.473 16.7593 3.473C17.6525 3.47044 18.5444 3.51644 19.4324 3.60717V6.71217H17.6078C16.1639 6.71217 15.8828 7.3945 15.8828 8.40139V10.6183H19.3328L18.8843 14.1003H15.8623V23H20.4444C21.8564 23 23 21.8564 23 20.4444V2.55556C23 1.14361 21.8564 0 20.4444 0Z" fill="white"/>
</svg>
