<svg width="23" height="23" viewBox="0 0 23 23" fill="none" xmlns="http://www.w3.org/2000/svg">
<path d="M20.4444 0H2.55556C1.14361 0 0 1.14361 0 2.55556V20.4444C0 21.8564 1.14361 23 2.55556 23H20.4444C21.8564 23 23 21.8564 23 20.4444V2.55556C23 1.14361 21.8564 0 20.4444 0ZM7.66667 17.8889H4.44283V8.94444H7.66667V17.8889ZM5.99789 7.30506C5.01272 7.30506 4.35467 6.64828 4.35467 5.77172C4.35467 4.89517 5.01144 4.23839 6.1065 4.23839C7.09167 4.23839 7.74972 4.89517 7.74972 5.77172C7.74972 6.64828 7.09294 7.30506 5.99789 7.30506ZM19.1667 17.8889H16.0463V13.0001C16.0463 11.6482 15.2145 11.3364 14.9027 11.3364C14.5909 11.3364 13.5508 11.5447 13.5508 13.0001C13.5508 13.2084 13.5508 17.8889 13.5508 17.8889H10.327V8.94444H13.5508V10.1928C13.9661 9.4645 14.7979 8.94444 16.3581 8.94444C17.9183 8.94444 19.1667 10.1928 19.1667 13.0001V17.8889Z" fill="white"/>
</svg>
